# Blender v2.73 (sub 0) OBJ File: ''
# www.blender.org
mtllib pboard.mtl
o Cylinder.001
v 0.707107 0.707104 3.005000
v 0.707107 0.707100 6.010000
v 0.000000 0.999992 6.010000
v 1.000000 -0.000003 3.005000
v 1.000000 -0.000007 6.009999
v 0.707107 -0.707110 3.004999
v 0.707107 -0.707114 6.009999
v 0.000000 -1.000003 3.004999
v 0.000000 -1.000007 6.009999
v -0.707107 -0.707109 3.004999
v -0.707107 -0.707114 6.009999
v -1.000000 -0.000003 3.005000
v -1.000000 -0.000007 6.009999
v 1.000000 0.000003 -3.005000
v 1.000000 0.000000 0.000000
v 0.707107 0.707107 0.000000
v -0.707107 0.707104 3.005000
v 0.000000 0.999997 3.005001
v -0.707107 0.707099 6.010000
v 0.707107 0.707110 -3.004999
v 0.000000 1.000000 0.000001
v 0.707107 -0.707104 -3.005000
v 0.707107 -0.707107 -0.000000
v 0.000000 -0.999997 -3.005001
v 0.000000 -1.000000 -0.000001
v -0.707107 -0.707104 -3.005000
v -0.707107 -0.707106 -0.000000
v -1.000000 0.000003 -3.005000
v -1.000000 0.000000 0.000000
v -0.707107 0.707109 -3.004999
v 0.000000 1.000003 -3.004999
v -0.707107 0.707106 0.000000
v 1.000000 0.000007 -6.009999
v 0.707107 0.707114 -6.009999
v 0.707107 -0.707100 -6.010000
v 0.000000 -0.999992 -6.010000
v -0.707107 -0.707099 -6.010000
v -1.000000 0.000007 -6.009999
v -0.707107 0.707114 -6.009999
v 0.000000 1.000007 -6.009999
vt 0.507039 0.991757
vt -0.492961 0.991757
vt -0.492963 0.505880
vt 1.506643 0.991757
vt 0.511565 0.991757
vt 0.511565 0.505880
vt 0.507037 0.505880
vt 1.506643 0.505880
vt 0.506643 0.991757
vt 0.506643 0.505880
vn -0.382700 -0.923900 -0.000000
vn -0.923900 -0.382700 -0.000000
vn -0.923900 0.382700 0.000000
vn -0.382700 0.923900 0.000000
vn 0.382700 0.923900 0.000000
vn 0.923900 0.382700 0.000000
vn 0.382700 -0.923900 -0.000000
vn 0.923900 -0.382700 -0.000000
usemtl Roto_Zoom
s off
f 1/1/1 2/2/1 3/3/1
f 4/4/2 5/5/2 2/6/2
f 6/1/3 7/2/3 5/3/3
f 8/4/4 9/5/4 7/6/4
f 8/7/5 10/1/5 11/2/5
f 12/4/6 13/5/6 11/6/6
f 14/4/2 15/5/2 16/6/2
f 17/8/7 18/4/7 3/5/7
f 17/1/8 19/2/8 13/3/8
f 20/1/1 16/2/1 21/3/1
f 22/1/3 23/2/3 15/3/3
f 24/4/4 25/5/4 23/6/4
f 24/7/5 26/1/5 27/2/5
f 28/4/6 29/5/6 27/6/6
f 30/8/7 31/4/7 21/5/7
f 30/1/8 32/2/8 29/3/8
f 16/4/1 1/5/1 18/6/1
f 4/2/2 1/3/2 15/1/2
f 23/4/3 6/5/3 4/6/3
f 25/1/4 8/2/4 6/3/4
f 25/8/5 27/4/5 10/5/5
f 29/1/6 12/2/6 10/3/6
f 33/1/2 14/2/2 20/3/2
f 32/7/7 21/1/7 18/2/7
f 32/4/8 17/5/8 12/6/8
f 34/4/1 20/5/1 31/6/1
f 35/4/3 22/5/3 14/6/3
f 36/1/4 24/2/4 22/3/4
f 36/8/5 37/4/5 26/5/5
f 37/7/6 38/1/6 28/2/6
f 39/7/7 40/1/7 31/2/7
f 38/8/8 39/4/8 30/9/8
f 18/7/1 1/1/1 3/3/1
f 1/8/2 4/4/2 2/6/2
f 4/7/3 6/1/3 5/3/3
f 6/8/4 8/4/4 7/6/4
f 9/3/5 8/7/5 11/2/5
f 10/8/6 12/4/6 11/6/6
f 20/8/2 14/4/2 16/6/2
f 19/6/7 17/8/7 3/5/7
f 12/7/8 17/1/8 13/3/8
f 31/7/1 20/1/1 21/3/1
f 14/7/3 22/1/3 15/3/3
f 22/8/4 24/4/4 23/6/4
f 25/3/5 24/7/5 27/2/5
f 26/8/6 28/4/6 27/6/6
f 32/6/7 30/8/7 21/5/7
f 28/7/8 30/1/8 29/3/8
f 21/8/1 16/4/1 18/6/1
f 15/1/2 1/3/2 16/7/2
f 15/8/3 23/4/3 4/6/3
f 23/7/4 25/1/4 6/3/4
f 8/6/5 25/8/5 10/5/5
f 27/7/6 29/1/6 10/3/6
f 34/7/2 33/1/2 20/3/2
f 17/3/7 32/7/7 18/2/7
f 29/8/8 32/4/8 12/6/8
f 40/8/1 34/4/1 31/6/1
f 33/8/3 35/4/3 14/6/3
f 35/7/4 36/1/4 22/3/4
f 24/6/5 36/8/5 26/5/5
f 26/3/6 37/7/6 28/2/6
f 30/3/7 39/7/7 31/2/7
f 28/10/8 38/8/8 30/9/8
